<?xml version="1.0" encoding="utf-8"?>
<!-- Generator: Adobe Illustrator 24.0.1, SVG Export Plug-In . SVG Version: 6.00 Build 0)  -->
<svg version="1.1" id="Layer_1" xmlns="http://www.w3.org/2000/svg" xmlns:xlink="http://www.w3.org/1999/xlink" x="0px" y="0px"
	 viewBox="0 0 113.67 45.2" style="enable-background:new 0 0 113.67 45.2;" xml:space="preserve">
<style type="text/css">
	.st0{fill:#FFFFFF;}
</style>
<g>
	<path class="st0" d="M39.55,41.66c0.67,0.58,1.3,0.89,1.91,0.93v1.17H23.72v-1.17c1.48-0.08,2.53-0.26,3.15-0.56
		c0.62-0.29,0.93-0.81,0.93-1.55c0-0.7-0.23-1.64-0.68-2.79l-3.51-9.58H10.86l-1.51,4.02c-1.08,2.81-1.63,4.98-1.63,6.5
		c0,1.45,0.44,2.45,1.31,3.01c0.87,0.56,2.17,0.88,3.88,0.96v1.17H1.22v-1.17c1.92-0.34,3.59-2.39,5.02-6.13L19.56,2.29h4.05
		l14.17,36.56C38.3,40.14,38.89,41.08,39.55,41.66z M23.18,26.93l-5.76-15.77l-6.07,15.77H23.18z"/>
	<path class="st0" d="M79.95,7.58c3.77,3.45,5.66,8.46,5.66,15.04c0,4.24-0.92,7.95-2.77,11.12c-1.84,3.18-4.51,5.64-8,7.39
		c-3.49,1.75-7.65,2.62-12.48,2.62H44.86v-1.17c1.27-0.08,2.21-0.23,2.82-0.47s1.02-0.68,1.23-1.34c0.21-0.66,0.31-1.73,0.31-3.21
		V8.59c0-1.48-0.1-2.55-0.31-3.21c-0.21-0.66-0.62-1.1-1.23-1.34c-0.61-0.24-1.55-0.39-2.82-0.47V2.4h18.02
		C70.48,2.4,76.17,4.13,79.95,7.58z M60.11,3.87c-0.61,0.28-1.03,0.76-1.25,1.45c-0.23,0.69-0.34,1.74-0.34,3.15v29.2
		c0,1.41,0.11,2.46,0.34,3.15c0.23,0.69,0.65,1.18,1.25,1.45c0.61,0.28,1.53,0.41,2.77,0.41c4.71,0,8.07-1.64,10.05-4.93
		c1.99-3.29,2.98-8.26,2.98-14.91c0-6.65-1.02-11.55-3.07-14.69c-2.04-3.14-5.39-4.71-10.02-4.71C61.62,3.46,60.72,3.59,60.11,3.87z
		"/>
	<path class="st0" d="M108.19,3.57c-1.31,0.08-2.26,0.23-2.85,0.47c-0.59,0.24-0.99,0.68-1.2,1.34c-0.21,0.66-0.31,1.73-0.31,3.21
		v28.97c0,1.48,0.1,2.55,0.31,3.21c0.21,0.66,0.61,1.1,1.2,1.34s1.54,0.39,2.85,0.47v1.17H90.17v-1.17
		c1.27-0.08,2.21-0.23,2.82-0.47s1.02-0.68,1.23-1.34c0.21-0.66,0.31-1.73,0.31-3.21V8.59c0-1.48-0.1-2.55-0.31-3.21
		c-0.21-0.66-0.62-1.1-1.23-1.34c-0.61-0.24-1.55-0.39-2.82-0.47V2.4h18.02V3.57z"/>
</g>
</svg>
