<?xml version="1.0" encoding="utf-8"?>
<!-- Generator: Adobe Illustrator 24.0.1, SVG Export Plug-In . SVG Version: 6.00 Build 0)  -->
<svg version="1.1" id="Layer_1" xmlns="http://www.w3.org/2000/svg" xmlns:xlink="http://www.w3.org/1999/xlink" x="0px" y="0px"
	 viewBox="0 0 132.85 80.61" style="enable-background:new 0 0 132.85 80.61;" xml:space="preserve">
<style type="text/css">
	.st0{fill:#FFFFFF;}
</style>
<g>
	<path class="st0" d="M26.57,54.31c0,0.14,0.16,0.47,0.47,0.98c0.31,0.52,0.6,1.29,0.88,2.33c0.27,1.04,0.41,2.42,0.41,4.14
		c0,1.73-0.28,3.83-0.83,6.32c-0.07,0.21-0.21,0.73-0.41,1.55c-0.21,0.83-0.47,1.67-0.78,2.54c-0.31,0.86-0.64,1.62-0.98,2.28
		c-0.35,0.66-0.72,0.91-1.14,0.78c-0.41-0.21-0.67-0.88-0.78-2.02s-0.09-2.49,0.05-4.04c0.14-1.55,0.34-3.23,0.62-5.02
		c0.27-1.79,0.53-3.45,0.78-4.97c0.24-1.52,0.45-2.8,0.62-3.83c0.17-1.04,0.22-1.59,0.16-1.66c-0.83-1.1-1.85-1.92-3.05-2.43
		c-1.21-0.52-2.5-0.78-3.88-0.78c-1.86,0-3.76,0.4-5.7,1.19c-1.93,0.79-3.69,1.66-5.28,2.59c-1.59,0.93-2.9,1.76-3.94,2.49
		c-1.04,0.72-1.62,1.05-1.76,0.98c-0.21-0.14,0.05-0.47,0.78-0.98c0.73-0.52,1.74-1.19,3.06-2.02c1.31-0.83,2.85-1.74,4.61-2.74
		c1.76-1,3.61-2,5.54-3c1.93-1,3.88-1.98,5.85-2.95c1.97-0.97,3.81-1.79,5.54-2.49c0.41-0.14,0.64-0.27,0.67-0.41
		c0.03-0.14,0.19-0.76,0.47-1.86c1.31-5.38,2.76-10.44,4.35-15.17c1.59-4.73,3.16-8.89,4.71-12.48c1.55-3.59,3.02-6.42,4.4-8.49
		c1.38-2.07,2.52-3.11,3.42-3.11c1.04,0,1.81,0.73,2.33,2.17c0.52,1.45,0.9,3.61,1.14,6.47c0.24,2.87,0.4,6.4,0.47,10.61
		c0.07,4.21,0.17,9.11,0.31,14.7c2.49-0.69,4.83-1.31,7.04-1.86c1.79-0.48,3.57-0.91,5.33-1.29c1.76-0.38,3.02-0.57,3.78-0.57
		c0.41,0,0.62,0.07,0.62,0.21c0,0.14-0.17,0.21-0.52,0.21c-1.73,0.28-3.56,0.62-5.49,1.04c-1.93,0.41-3.69,0.83-5.28,1.24
		c-1.59,0.41-3.42,0.93-5.49,1.55c0,0.21,0.03,1.19,0.1,2.95c0.07,1.76,0.17,3.88,0.31,6.37c0.14,2.49,0.29,5.16,0.47,8.03
		c0.17,2.87,0.38,5.54,0.62,8.03c0.24,2.49,0.48,4.59,0.73,6.32c0.24,1.73,0.47,2.69,0.67,2.9c0.34,0.34,0.24,0.52-0.31,0.52
		c-0.14,0-0.35-0.05-0.62-0.16c-0.28-0.1-0.48-0.29-0.62-0.57c-0.21-0.41-0.43-1.36-0.67-2.85c-0.24-1.49-0.45-3.28-0.62-5.38
		c-0.17-2.1-0.35-4.4-0.52-6.89c-0.17-2.49-0.33-4.92-0.47-7.3c-0.14-2.38-0.24-4.61-0.31-6.68c-0.07-2.07-0.14-3.69-0.21-4.87
		c-2.07,0.55-4.23,1.21-6.47,1.97c-2.24,0.76-4.3,1.49-6.16,2.17c-2.21,0.76-4.38,1.55-6.52,2.38c-0.48,1.93-0.9,3.69-1.24,5.28
		c-0.35,1.38-0.64,2.62-0.88,3.73C26.69,53.55,26.57,54.18,26.57,54.31z M27.92,43.96c-0.14,0-0.92,0.33-2.33,0.98
		c-1.42,0.66-2.97,1.4-4.66,2.23c-1.69,0.83-3.28,1.6-4.76,2.33c-1.48,0.72-2.33,1.16-2.54,1.29c0.14-0.14,0.62-0.29,1.45-0.47
		c0.83-0.17,1.83-0.26,3-0.26c1.31,0,2.67,0.21,4.09,0.62c1.41,0.41,2.64,1.28,3.68,2.59L27.92,43.96z M24.09,73.37
		c0.07,0.9,0.14,1.35,0.21,1.35c0.21,0,0.71-0.92,1.5-2.74c0.79-1.83,1.33-4.16,1.61-6.99c0.27-1.79,0.36-3.33,0.26-4.61
		c-0.1-1.28-0.23-2.29-0.36-3.06c-0.21-0.97-0.48-1.72-0.83-2.28c-0.07,0.21-0.24,1.07-0.52,2.59c-0.28,1.52-0.57,3.25-0.88,5.18
		c-0.31,1.93-0.57,3.88-0.78,5.85C24.09,70.62,24.02,72.19,24.09,73.37z M29.16,42.82c1.93-0.83,4.04-1.62,6.32-2.38
		c2.28-0.76,4.37-1.45,6.26-2.07c1.9-0.62,3.47-1.12,4.71-1.5c1.24-0.38,1.83-0.57,1.76-0.57c0-4.9-0.07-9.46-0.21-13.67
		c0-1.79-0.04-3.61-0.1-5.44c-0.07-1.83-0.14-3.54-0.21-5.13c-0.07-1.59-0.17-3-0.31-4.25c-0.14-1.24-0.28-2.17-0.41-2.8
		c-0.14-0.41-0.26-0.81-0.36-1.19c-0.1-0.38-0.23-0.57-0.36-0.57c-0.28-0.14-0.88,0.28-1.81,1.24c-0.93,0.97-2.04,2.57-3.31,4.82
		c-1.28,2.24-2.71,5.18-4.3,8.8c-1.59,3.62-3.18,8.06-4.76,13.31c-0.21,0.69-0.47,1.62-0.78,2.8c-0.31,1.17-0.62,2.37-0.93,3.57
		c-0.31,1.21-0.59,2.28-0.83,3.21C29.28,41.94,29.16,42.54,29.16,42.82z"/>
	<path class="st0" d="M56.4,17.55h0.73c0.27,0,0.45,0.21,0.52,0.62c0.14,0.76,0.19,2.23,0.16,4.4c-0.04,2.17-0.1,4.44-0.21,6.78
		c-0.1,2.35-0.19,4.45-0.26,6.32c-0.07,1.86-0.1,2.87-0.1,3c0.83-3.66,2.19-7.54,4.09-11.65c1.9-4.11,4.04-7.9,6.42-11.39
		c2.38-3.48,4.88-6.37,7.51-8.65c2.62-2.28,5.07-3.42,7.35-3.42c1.1,0,2.21,0.38,3.31,1.14C87.7,6.02,89,7.8,89.79,10.04
		c0.79,2.24,1.29,4.66,1.5,7.25c0.21,2.59,0.17,5.2-0.1,7.82c-0.28,2.62-0.62,5.02-1.04,7.2c-0.41,2.17-0.81,3.95-1.19,5.33
		c-0.38,1.38-0.57,2.14-0.57,2.28c1.45-0.55,3.14-1.26,5.07-2.12c1.93-0.86,3.69-1.74,5.28-2.64c0.48,0.14,0.64,0.28,0.47,0.41
		c-0.17,0.14-0.5,0.35-0.98,0.62c-2.49,1.38-4.71,2.47-6.68,3.26c-1.97,0.79-3.12,1.26-3.47,1.4c-0.07,0.21-0.31,1-0.73,2.38
		c-0.41,1.38-1.07,3.09-1.97,5.13c-0.9,2.04-2.04,4.28-3.42,6.73c-1.38,2.45-3.11,4.85-5.18,7.2c-1.45,1.59-3.16,3.11-5.13,4.56
		c-1.97,1.45-4.09,2.73-6.37,3.83c-2.28,1.1-4.63,1.97-7.04,2.59c-2.42,0.62-4.8,0.93-7.15,0.93c-2.62,0-5.06-0.43-7.3-1.29
		c-2.24-0.86-4.23-2.3-5.95-4.3c-1.45-1.66-2.14-3.37-2.07-5.13c0.07-1.76,0.67-3.43,1.81-5.02c1.14-1.59,2.69-3.02,4.66-4.3
		c1.97-1.28,4.13-2.29,6.47-3.05c3.45-1.1,6.71-2.02,9.79-2.74c3.07-0.73,6.04-1.41,8.91-2.07c2.86-0.66,5.71-1.35,8.54-2.07
		c2.83-0.73,5.76-1.64,8.8-2.74c0.97-0.34,1.5-0.57,1.6-0.67s0.19-0.29,0.26-0.57c0.69-2.21,1.33-4.73,1.92-7.56
		c0.59-2.83,1.02-5.71,1.29-8.65c0.28-2.93,0.29-5.78,0.05-8.54c-0.24-2.76-0.85-5.18-1.81-7.25c-1.38-2.76-3.21-4.14-5.49-4.14
		c-2.21,0-4.61,1.19-7.2,3.57c-2.59,2.38-5.09,5.37-7.51,8.96c-2.42,3.59-4.56,7.51-6.42,11.75c-1.86,4.25-3.18,8.2-3.94,11.86
		c-0.14,0.62-0.24,1.36-0.31,2.23c-0.07,0.86-0.12,1.67-0.16,2.43c-0.04,0.76-0.05,1.43-0.05,2.02c0,0.59,0,0.95,0,1.09
		c0,0.35-0.24,0.52-0.73,0.52c-0.21,0-0.41-0.05-0.62-0.16s-0.27-0.29-0.21-0.57c0.14-5.59,0.28-10.18,0.41-13.77
		c0.14-3.59,0.22-6.45,0.26-8.59c0.03-2.14,0.07-3.69,0.1-4.66c0.03-0.97,0.07-1.62,0.1-1.97c0.03-0.34,0.05-0.55,0.05-0.62
		C56.4,18.11,56.4,17.9,56.4,17.55z M53.29,73.37c4.42-0.62,8.39-1.9,11.91-3.83c3.52-1.93,6.64-4.33,9.37-7.2
		c2.73-2.86,5.06-6.07,6.99-9.63c1.93-3.55,3.49-7.27,4.66-11.13c-4.76,1.73-9.29,3.12-13.57,4.19c-4.28,1.07-8.25,2.02-11.91,2.85
		c-3.66,0.83-6.94,1.64-9.84,2.43c-2.9,0.79-5.38,1.81-7.46,3.05c-3.45,2.07-5.57,4.23-6.37,6.47c-0.79,2.24-0.67,4.33,0.36,6.26
		c1.04,1.93,2.78,3.52,5.23,4.76c2.45,1.24,5.2,1.86,8.23,1.86c0.35,0,0.73,0,1.14,0S52.88,73.44,53.29,73.37z"/>
	<path class="st0" d="M107.45,73.68c0,0.21,0.03,0.38,0.1,0.52v0.41c-0.28,0.28-0.52,0.41-0.73,0.41s-0.38-0.24-0.52-0.73
		c0-0.14-0.1-0.17-0.31-0.1c-0.55,0.21-1.21,0.48-1.97,0.83c-0.76,0.34-1.54,0.71-2.33,1.09c-0.79,0.38-1.54,0.78-2.23,1.19
		c-0.69,0.41-1.21,0.76-1.55,1.04c-0.14,0.07-0.17,0.17-0.1,0.31l0.1,0.21c-0.14,0-0.29-0.09-0.47-0.26
		c-0.17-0.17-0.16-0.36,0.05-0.57c0.14-0.28,0.71-0.71,1.71-1.29c1-0.59,2.02-1.16,3.06-1.71c1.04-0.55,1.83-0.93,2.38-1.14
		c0.55-0.21,0.93-0.35,1.14-0.41c0.21-0.07,0.31-0.14,0.31-0.21c0-0.07-0.04-0.28-0.1-0.62c-0.28-1.86-0.47-4.19-0.57-6.99
		c-0.1-2.8-0.16-5.87-0.16-9.22c0-3.35,0.05-6.87,0.16-10.56c0.1-3.69,0.22-7.3,0.36-10.82c0.41-8.35,0.97-17.26,1.66-26.72
		c0-0.21,0.02-0.5,0.05-0.88c0.03-0.38,0.07-0.78,0.1-1.19c0.03-0.41,0.05-0.79,0.05-1.14c0-0.34,0-0.55,0-0.62
		c-2.9,0.41-5.3,0.92-7.2,1.5c-1.9,0.59-3.42,1.12-4.56,1.6c-1.14,0.48-1.97,0.86-2.49,1.14C92.9,9.03,92.6,9.1,92.54,8.96
		c-0.14-0.21,0.05-0.48,0.57-0.83c0.52-0.34,1.31-0.73,2.38-1.14c1.07-0.41,2.35-0.84,3.83-1.29c1.48-0.45,3.09-0.84,4.82-1.19
		c4.14-0.9,8.61-1.6,13.41-2.12c4.8-0.52,9.3-0.91,13.51-1.19c0.14,0,0.24,0.09,0.31,0.26c0.07,0.17,0,0.26-0.21,0.26
		c-0.14,0-0.74,0.05-1.81,0.16c-1.07,0.1-2.38,0.23-3.94,0.36c-1.55,0.14-3.23,0.31-5.02,0.52c-1.8,0.21-3.49,0.41-5.07,0.62
		c-1.59,0.21-2.99,0.4-4.19,0.57c-1.21,0.17-1.99,0.33-2.33,0.47c0,1.31-0.07,3.28-0.21,5.9c-0.14,2.62-0.31,5.66-0.52,9.11
		c-0.21,3.45-0.41,7.23-0.62,11.34c-0.21,4.11-0.38,8.34-0.52,12.69c-0.14,4.35-0.21,8.7-0.21,13.05s0.1,8.49,0.31,12.43
		c0.07,0.76,0.14,1.6,0.21,2.54c0.07,0.93,0.1,1.43,0.1,1.5c0.14,0.07,1.28-0.17,3.42-0.73c2.14-0.55,5.35-0.83,9.63-0.83
		c0.55,0,1.1,0,1.66,0c0.55,0,1.14,0.03,1.76,0.1c1.1,0.07,1.78,0.12,2.02,0.16c0.24,0.03,0.36,0.16,0.36,0.36
		c0,0.07-0.07,0.1-0.21,0.1c-0.14,0-0.31,0-0.52,0s-0.59-0.04-1.14-0.1c-0.48,0-0.95-0.02-1.4-0.05c-0.45-0.04-0.92-0.05-1.4-0.05
		c-4.35,0-7.77,0.29-10.25,0.88C108.79,73.38,107.52,73.68,107.45,73.68z"/>
</g>
</svg>
