<?xml version="1.0" encoding="utf-8"?>
<!-- Generator: Adobe Illustrator 24.0.1, SVG Export Plug-In . SVG Version: 6.00 Build 0)  -->
<svg version="1.1" id="Layer_1" xmlns="http://www.w3.org/2000/svg" xmlns:xlink="http://www.w3.org/1999/xlink" x="0px" y="0px"
	 viewBox="0 0 427.1 107.22" style="enable-background:new 0 0 427.1 107.22;" xml:space="preserve">
<style type="text/css">
	.st0{fill:#FFFFFF;}
</style>
<rect x="2.73" y="2.26" class="st0" width="219.54" height="96"/>
<g>
	<path d="M92.83,58.26H72.55l-8.17,22.44h-3.51l21.82-59.94l21.79,59.94H101L92.83,58.26z M91.62,54.97L82.69,30.4l-8.93,24.57
		H91.62z"/>
	<path d="M115.09,22.2h0.26c9.64,0,17.11,2.66,22.41,7.98c5.86,5.88,8.79,12.96,8.79,21.24c0,8.3-2.93,15.38-8.79,21.24
		c-5.3,5.32-12.77,7.98-22.41,7.98h-0.26v0.07h-3.29V22.12h3.29V22.2z M115.09,25.57V77.3h0.26c8.69,0,15.37-2.34,20.03-7.03
		c5.2-5.2,7.8-11.48,7.8-18.86c0-7.35-2.6-13.63-7.8-18.86c-4.66-4.66-11.34-6.99-20.03-6.99H115.09z"/>
	<path d="M159.72,22.12v58.58h-3.29V22.12H159.72z"/>
</g>
<g>
	<path d="M269.76,65.78c0.2,0,0.33,0.08,0.41,0.24c0.08,0.16,0.06,0.33-0.06,0.53c-2.67,4.43-5.84,8.48-9.5,12.15
		c-3.67,3.67-7.27,5.5-10.8,5.5c-4.71,0-7.06-2.16-7.06-6.47c0-6.98,6.12-19.38,18.36-37.19c-4.08,4.24-7.1,7.34-9.06,9.3
		c-6.28,6.39-11.25,11.64-14.92,15.74c-3.67,4.1-6.8,8.23-9.39,12.39c-0.39,1.29-0.95,2.26-1.68,2.88
		c-0.73,0.63-1.48,0.94-2.27,0.94c-0.71,0-1.29-0.26-1.77-0.77c-0.47-0.51-0.71-1.18-0.71-2c0-0.51,0.08-1,0.24-1.47
		c2.39-6.55,5.18-12.76,8.36-18.62c3.18-5.86,7.61-12.86,13.3-20.98c-2.04,1.26-4.33,3.15-6.86,5.68s-5.82,5.99-9.86,10.39
		c-5.22,5.65-9.64,10.25-13.27,13.8c-3.63,3.55-7.41,6.59-11.33,9.12c-3.92,2.53-7.55,3.8-10.89,3.8c-3.53,0-6.15-0.77-7.86-2.32
		c-1.71-1.55-2.56-3.6-2.56-6.15c0-3.1,1.16-6.43,3.47-10c2.31-3.57,5.39-6.56,9.24-8.97c3.84-2.41,7.96-3.62,12.36-3.62
		c1.92,0,3.34,0.37,4.27,1.12c0.92,0.75,1.38,1.73,1.38,2.94c0,1.45-0.55,3-1.65,4.65c-1.1,1.65-2.51,3.04-4.24,4.18
		c-1.73,1.14-3.45,1.71-5.18,1.71c-0.31,0-0.47-0.14-0.47-0.41c0-0.08,0.04-0.16,0.12-0.24c0.08-0.08,0.2-0.12,0.35-0.12
		c1.45,0,2.87-0.5,4.27-1.5c1.39-1,2.53-2.21,3.41-3.62c0.88-1.41,1.32-2.71,1.32-3.88c0-0.86-0.26-1.54-0.79-2.03
		c-0.53-0.49-1.36-0.74-2.5-0.74c-3.18,0-6.25,1.18-9.21,3.53c-2.96,2.35-5.38,5.22-7.24,8.59c-1.86,3.37-2.79,6.4-2.79,9.06
		c0,1.77,0.46,3.17,1.38,4.21c0.92,1.04,2.32,1.56,4.21,1.56c2.63,0,5.66-1.18,9.09-3.53s6.85-5.2,10.24-8.53
		c3.39-3.33,7.64-7.75,12.74-13.24c4.24-4.55,7.62-8.09,10.15-10.62c2.53-2.53,4.83-4.54,6.91-6.03c-2.55,0.47-6.08,1.31-10.59,2.53
		c-3.06,0.82-5.14,1.35-6.24,1.59c-1.33,0.31-2.34,0.79-3.03,1.44s-1.03,1.32-1.03,2.03c0,0.59,0.22,1.09,0.68,1.5
		c0.45,0.41,1.03,0.62,1.74,0.62c0.24,0,0.43-0.02,0.59-0.06c0.12-0.04,0.27-0.06,0.47-0.06c0.27,0,0.49,0.07,0.65,0.21
		c0.16,0.14,0.24,0.32,0.24,0.56c0,0.31-0.14,0.6-0.41,0.85c-0.28,0.26-0.69,0.42-1.24,0.5c-1.1,0.35-2.14,0.53-3.12,0.53
		c-1.41,0-2.55-0.33-3.41-1c-0.86-0.67-1.29-1.49-1.29-2.47c0-1.06,0.58-2.09,1.74-3.09c1.16-1,2.87-1.77,5.15-2.32l5.59-1.41
		c9.49-2.55,15.59-3.96,18.3-4.24c0.12,0,0.2-0.02,0.24-0.06c0.12-0.04,0.29-0.06,0.53-0.06c0.59,0,1.02,0.14,1.29,0.41
		c0.24,0.16,0.39,0.33,0.47,0.53c0.08,0.2,0.08,0.39,0,0.59L248.63,36c-4.87,8.2-8.58,14.71-11.15,19.54
		c-2.57,4.83-4.85,9.73-6.86,14.71c4-5.3,8.92-10.93,14.74-16.89c5.83-5.96,12.27-11.95,19.33-17.95c0.55-0.74,1.24-1.12,2.06-1.12
		c0.47,0,0.88,0.12,1.24,0.35c0.35,0.24,0.53,0.51,0.53,0.82c0,0.16-0.06,0.33-0.18,0.53c-5.88,9.93-10.71,18.62-14.48,26.07
		c-3.77,7.45-5.65,12.97-5.65,16.54c0,2.35,1,3.53,3,3.53c1.73,0,3.73-0.83,6-2.5c2.27-1.67,4.49-3.74,6.65-6.21
		c2.16-2.47,3.94-4.88,5.36-7.24C269.39,65.92,269.56,65.78,269.76,65.78z"/>
	<path d="M304.07,65.78c0.2,0,0.33,0.08,0.41,0.24c0.08,0.16,0.06,0.33-0.06,0.53c-2.83,4.39-5.51,7.94-8.06,10.65
		c-2.55,2.71-5.06,4.06-7.53,4.06c-3.84,0-5.77-1.57-5.77-4.71c0-1.26,0.29-2.73,0.88-4.41c-4.32,4.43-8.12,6.65-11.42,6.65
		c-1.92,0-3.34-0.44-4.27-1.32c-0.92-0.88-1.38-2.09-1.38-3.62c0-2.9,1.34-6.51,4.03-10.83c2.69-4.32,5.86-8.07,9.5-11.27
		c3.65-3.2,6.81-4.8,9.47-4.8c1.33,0,2.27,0.44,2.82,1.32c0.55,0.88,0.82,1.89,0.82,3.03c0,0.75-0.06,1.24-0.18,1.47
		c-0.12,0.27-0.31,0.41-0.59,0.41s-0.39-0.18-0.35-0.53c0.04-0.12,0.06-0.43,0.06-0.94c0-0.74-0.17-1.38-0.5-1.91
		c-0.33-0.53-0.95-0.79-1.85-0.79c-1.77,0-4.02,1.65-6.77,4.94s-5.19,7.03-7.33,11.21c-2.14,4.18-3.21,7.33-3.21,9.44
		c0,1.41,0.53,2.12,1.59,2.12c1.33,0,3.11-1.06,5.33-3.18c2.22-2.12,4.66-4.88,7.33-8.3c2.43-4.51,6.22-10.36,11.36-17.54
		c0.51-0.78,1.2-1.18,2.06-1.18c0.47,0,0.88,0.12,1.24,0.35c0.35,0.24,0.53,0.51,0.53,0.82c0,0.16-0.06,0.33-0.18,0.53
		c-4.9,8.28-8.48,14.6-10.74,18.98c-2.26,4.37-3.38,7.58-3.38,9.62c0,1.57,0.77,2.35,2.29,2.35c1.49,0,3.51-1.29,6.06-3.85
		c2.55-2.57,4.96-5.62,7.24-9.15C303.69,65.92,303.87,65.78,304.07,65.78z"/>
	<path d="M336.67,65.78c0.2,0,0.33,0.08,0.41,0.24c0.08,0.16,0.06,0.33-0.06,0.53c-0.71,1.1-1.22,1.92-1.53,2.47
		c-1.73,2.71-3.22,4.87-4.47,6.47c-1.26,1.61-2.84,2.97-4.77,4.09c-1.92,1.12-4.22,1.68-6.88,1.68c-2.35,0-4.4-0.96-6.15-2.88
		c-1.75-1.92-2.82-4.57-3.21-7.94l0.94-2c3.02,0,5.95-1.11,8.8-3.32c2.84-2.22,5.18-4.78,7-7.68c1.82-2.9,2.74-5.18,2.74-6.83
		c0-1.06-0.41-1.59-1.24-1.59c-1.84,0-4.43,1.77-7.77,5.3c-3.33,3.53-6.51,7.6-9.53,12.21c-3.02,4.61-4.92,8.21-5.71,10.8
		c0,1.02-0.29,1.81-0.88,2.38c-0.59,0.57-1.27,0.85-2.06,0.85c-0.71,0-1.31-0.23-1.82-0.68c-0.51-0.45-0.77-1.09-0.77-1.91
		c0-0.2,0.04-0.49,0.12-0.88c0.43-2.79,1.78-6.75,4.03-11.89c2.26-5.14,5.01-10.56,8.27-16.27c3.26-5.71,6.53-10.74,9.83-15.09
		c0.51-0.78,1.2-1.18,2.06-1.18c0.47,0,0.88,0.12,1.24,0.35c0.35,0.24,0.53,0.51,0.53,0.82c0,0.16-0.06,0.33-0.18,0.53
		c-3.88,6.04-7.72,12.74-11.5,20.1c-3.79,7.36-6.4,13.33-7.86,17.92c1.73-3.45,4.01-7.17,6.86-11.15c2.84-3.98,5.77-7.36,8.77-10.12
		c3-2.77,5.6-4.15,7.8-4.15c1.41,0,2.47,0.38,3.18,1.15c0.71,0.77,1.06,1.79,1.06,3.09c0,2.16-0.85,4.61-2.56,7.36
		c-1.71,2.75-4.09,5.21-7.15,7.39c-3.06,2.18-6.51,3.58-10.36,4.21c0.16,3.14,0.92,5.43,2.29,6.89c1.37,1.45,2.92,2.18,4.65,2.18
		c2.24,0,4.24-0.58,6-1.74c1.77-1.16,3.27-2.55,4.5-4.18c1.24-1.63,2.85-3.99,4.85-7.09C336.29,65.92,336.47,65.78,336.67,65.78z"/>
	<path d="M360.35,48.24c0.77,0.86,1.15,2.02,1.15,3.47c0,2.24-0.8,4.69-2.41,7.36c-1.61,2.67-3.81,4.93-6.59,6.8
		c-2.79,1.86-5.87,2.79-9.24,2.79c-0.51,0-0.76-0.14-0.76-0.41c0-0.24,0.24-0.35,0.71-0.35c2.47,0,4.84-1.02,7.12-3.06
		c2.27-2.04,4.14-4.43,5.59-7.18c1.45-2.75,2.18-4.98,2.18-6.71c0-0.59-0.12-1.06-0.35-1.41s-0.59-0.53-1.06-0.53
		c-1.73,0-3.88,1.5-6.47,4.5c-2.59,3-4.86,6.51-6.8,10.53c-1.94,4.02-2.91,7.39-2.91,10.09c0,3.18,1.43,4.77,4.3,4.77
		c2.59,0,5.46-1.29,8.62-3.88c3.16-2.59,5.93-5.53,8.33-8.83c0.16-0.27,0.35-0.41,0.59-0.41c0.2,0,0.32,0.09,0.38,0.26
		c0.06,0.18,0.01,0.36-0.15,0.56c-2.04,2.71-3.99,5.07-5.86,7.09c-1.86,2.02-4.02,3.74-6.47,5.15c-2.45,1.41-5.05,2.12-7.8,2.12
		c-2.98,0-5.17-0.61-6.56-1.82c-1.39-1.22-2.09-2.88-2.09-5c0-3.18,1.34-6.93,4.03-11.27c2.69-4.33,5.88-8.07,9.56-11.21
		c3.69-3.14,6.87-4.71,9.53-4.71C358.44,46.95,359.59,47.38,360.35,48.24z"/>
	<path d="M396.51,65.78c0.2,0,0.33,0.08,0.41,0.24c0.08,0.16,0.06,0.33-0.06,0.53c-2.83,4.39-5.51,7.94-8.06,10.65
		c-2.55,2.71-5.06,4.06-7.53,4.06c-3.84,0-5.77-1.57-5.77-4.71c0-1.26,0.29-2.73,0.88-4.41c-4.32,4.43-8.12,6.65-11.42,6.65
		c-1.76,0-3.08-0.47-3.94-1.41s-1.29-2.24-1.29-3.88c0-2.16,0.66-4.77,1.97-7.83c1.31-3.06,3.09-6.14,5.33-9.24
		c2.24-3.1,4.67-5.85,7.3-8.24c0.82-0.94,1.8-1.41,2.94-1.41c0.63,0,1.16,0.16,1.59,0.47c0.43,0.31,0.65,0.69,0.65,1.12
		c0,0.43-0.2,0.84-0.59,1.24c-2.24,2.35-4.4,5.18-6.5,8.47s-3.79,6.46-5.09,9.5c-1.29,3.04-1.94,5.38-1.94,7.03
		c0,1.41,0.49,2.12,1.47,2.12c1.33,0,3.11-1.06,5.33-3.18c2.22-2.12,4.66-4.88,7.33-8.3c2.43-4.51,6.22-10.36,11.36-17.54
		c0.51-0.78,1.2-1.18,2.06-1.18c0.47,0,0.88,0.12,1.24,0.35c0.35,0.24,0.53,0.51,0.53,0.82c0,0.16-0.06,0.33-0.18,0.53
		c-4.9,8.28-8.48,14.6-10.74,18.98c-2.26,4.37-3.38,7.58-3.38,9.62c0,1.57,0.77,2.35,2.29,2.35c1.49,0,3.51-1.29,6.06-3.85
		c2.55-2.57,4.96-5.62,7.24-9.15C396.14,65.92,396.32,65.78,396.51,65.78z"/>
	<path d="M425.47,51.18c0,2.98-1.29,6.79-3.85,11.42c-2.57,4.63-5.56,8.69-8.97,12.18s-6.26,5.24-8.53,5.24
		c-1.33,0-2.28-0.44-2.83-1.32c-0.55-0.88-0.82-1.89-0.82-3.03c0-0.75,0.06-1.24,0.18-1.47c0.16-0.27,0.35-0.41,0.59-0.41
		c0.31,0,0.43,0.18,0.35,0.53c-0.04,0.12-0.06,0.43-0.06,0.94c0,0.75,0.17,1.38,0.5,1.91c0.33,0.53,0.95,0.79,1.85,0.79
		c1.33,0,3.31-1.83,5.94-5.5c2.63-3.67,5.01-7.75,7.15-12.24c2.14-4.49,3.21-7.78,3.21-9.86c0-1.25-0.45-1.88-1.35-1.88
		c-2.12,0-5.24,2.54-9.36,7.62c-4.12,5.08-7.88,10.48-11.3,16.21c-2.63,5.06-5,9.87-7.12,14.42c-2.12,4.55-3.71,8.24-4.77,11.06
		c-0.31,1.1-0.78,1.95-1.41,2.56c-0.63,0.61-1.25,0.91-1.88,0.91c-0.51,0-0.93-0.19-1.27-0.56c-0.33-0.37-0.5-0.89-0.5-1.56
		c0-0.55,0.1-1.08,0.29-1.59c0.9-3.1,2.81-7.84,5.71-14.21c2.9-6.38,6.26-12.89,10.06-19.54c3.8-6.65,7.47-12.07,11-16.27
		c0.63-0.78,1.37-1.18,2.24-1.18c0.43,0,0.8,0.11,1.12,0.32c0.31,0.22,0.47,0.48,0.47,0.79c0,0.2-0.08,0.39-0.24,0.59
		c-1.84,2.94-3.83,6.26-5.94,9.95c5.92-7.73,10.85-11.59,14.77-11.59C423.88,46.42,425.47,48.01,425.47,51.18z"/>
</g>
</svg>
